<svg xmlns="http://www.w3.org/2000/svg" fill-rule="evenodd" clip-rule="evenodd" image-rendering="optimizeQuality" shape-rendering="geometricPrecision" text-rendering="geometricPrecision" viewBox="0 0 640 640">
  <path fill="#9a948b" d="M320 8a320 320 0 0 0-101.2 623.6c16 3 22-7 22-15.4 0-7.7-.4-32.9-.5-59.6-89 19.4-107.8-37.7-107.8-37.7-14.6-37-35.6-46.9-35.6-46.9-29-19.9 2.2-19.4 2.2-19.4 32.2 2.2 49 33 49 33 28.6 48.9 75 34.7 93.2 26.5 2.9-20.7 11.2-34.8 20.3-42.8-71-8-145.8-35.5-145.8-158.1a124 124 0 0 1 33-85.9c-3.3-8-14.3-40.6 3-84.7 0 0 27-8.6 88.1 32.8a307 307 0 0 1 160.2 0c61.1-41.4 88-32.8 88-32.8 17.3 44.1 6.4 76.7 3.1 84.7 20.5 22.4 33 51 33 85.9 0 122.9-75 150-146.2 157.8 11.5 10 21.7 29.4 21.7 59.3 0 42.8-.3 77.3-.3 87.8 0 8.5 5.7 18.5 22 15.3A320 320 0 0 0 320 8"/>
</svg>