<svg xmlns="http://www.w3.org/2000/svg" viewBox="0 0 19 19">
  <g fill="none" stroke="none" font-family="Inter" font-size="25.4">
    <path
      fill="#f7f4ee"
      d="M67.1943 121.31v18.4794h2.2325v-7.2554h4.2912q1.9347 0 3.361-.6821 1.4387-.6945 2.22-1.9472.7938-1.265.7938-2.989 0-1.7238-.769-2.9765-.7565-1.265-2.1704-1.9472-1.4015-.682-3.3362-.682zm2.2325 1.9843h4.316q1.2899 0 2.2076.4465.9301.4341 1.4263 1.2402.5085.8062.5085 1.9348 0 1.1162-.5085 1.9347-.4962.8186-1.4263 1.265-.9177.4342-2.2076.4341h-4.316Z"
      transform="translate(-66.6458 -121.0497)"
    />
    <path
      fill="#d9a441"
      d="M76.9247 121.3104c1.089.3966 2.0163 1.146 2.6685 2.0872q.9453.1894 1.5725.7281.9674.8186.9674 2.2324 0 .9426-.434 1.6372-.4341.682-1.2527 1.0542a3.5 3.5 0 0 1-.1969.0827c-.3183.8554-.8268 1.636-1.4976 2.25q1.2604.0204 2.1534.4082.9426.397 1.4263 1.141.496.7318.496 1.7611 0 1.538-1.1286 2.3317-1.116.7813-3.2122.7813h-4.5392v-4.7423c-.74.0303-1.4888.01-2.2324-.005v6.7314h6.7716q2.22 0 3.6835-.6326 1.476-.645 2.1953-1.8107.7317-1.1658.7317-2.741 0-1.327-.5085-2.2323-.4961-.9054-1.3519-1.4263-.8433-.5333-1.8975-.707v-.0247q.9426-.3225 1.6123-.8434.6697-.5333 1.0294-1.3147t.3596-1.8355q0-1.513-.7193-2.6045-.707-1.1038-2.0464-1.6991-1.327-.6077-3.1874-.6077zm-2.9771 2.5078a4 4 0 0 0-.23.005h-2.0024v6.1873c1.2443.0283 2.498.109 3.6953-.245a2.5 2.5 0 0 0 .7168-.3441h-2.1797z"
      transform="translate(-66.6458 -121.0497)"
    />
  </g>
</svg>
